<?xml version="1.0" standalone="no"?>
<!DOCTYPE svg PUBLIC "-//W3C//DTD SVG 1.1//EN" "http://www.w3.org/Graphics/SVG/1.1/DTD/svg11.dtd" >
<!--
2013-9-30: Created.
-->
<svg>
<metadata>
Created by iconfont
</metadata>
<defs>

<font id="ocp-iconfont" horiz-adv-x="1024" >
  <font-face
    font-family="ocp-iconfont"
    font-weight="500"
    font-stretch="normal"
    units-per-em="1024"
    ascent="896"
    descent="-128"
  />
    <missing-glyph />
    
    <glyph glyph-name="assets" unicode="&#59280;" d="M960 576v-192c0-70.4-198.4-128-448-128-243.2 0-435.2 57.6-448 121.6V576c0-70.4 198.4-128 441.6-128h32c224 0 409.6 57.6 422.4 128zM512 832c249.6 0 448-57.6 448-128s-198.4-128-448-128-448 57.6-448 128 198.4 128 448 128zM960 256v-192c0-70.4-198.4-128-448-128s-448 57.6-448 128v192c0-70.4 198.4-128 441.6-128h32c224 0 409.6 57.6 422.4 128z"  horiz-adv-x="1024" />

    
    <glyph glyph-name="configuration" unicode="&#59281;" d="M409.392745 876.550646c12.793523-19.190285 63.967616-63.967616 102.348186-63.967616 38.38057 0 89.554663 44.777331 102.348186 63.967616 25.587047 19.190285 51.174093 25.587047 76.76114 12.793524l127.935233-76.76114c25.587047-19.190285 31.983808-51.174093 19.190285-76.76114 0 0-12.793523-25.587047-12.793524-51.174093 0-76.76114 57.570855-140.728756 134.331995-140.728756h6.396762c19.190285 0 38.38057-19.190285 44.777331-51.174093 0 0 12.793523-57.570855 12.793523-108.744948 0-44.777331-12.793523-102.348186-12.793523-108.744948-6.396762-31.983808-25.587047-51.174093-44.777331-51.174093H959.514246c-70.364378 0-134.331994-63.967616-134.331995-140.728756 0-25.587047 12.793523-51.174093 12.793524-51.174093 12.793523-25.587047 0-57.570855-19.190285-76.76114l-127.935233-76.76114c-6.396762-6.396762-19.190285-6.396762-25.587047-6.396761-19.190285 0-38.38057 6.396762-51.174093 19.190285-12.793523 19.190285-63.967616 63.967616-108.744947 63.967616-38.38057 0-89.554663-51.174093-108.744948-63.967616-12.793523-19.190285-44.777331-25.587047-70.364378-12.793524l-127.935233 76.76114c-25.587047 19.190285-31.983808 51.174093-19.190285 76.76114 0 0 12.793523 25.587047 12.793523 51.174093 0 76.76114-57.570855 140.728756-134.331994 140.728756-19.190285 0-38.38057 19.190285-44.777332 51.174093 0 6.396762-12.793523 63.967616-12.793523 108.744948s12.793523 102.348186 12.793523 108.744948c6.396762 31.983808 25.587047 51.174093 44.777332 51.174093H63.967616c70.364378 0 134.331994 63.967616 134.331995 140.728756-6.396762 19.190285-19.190285 51.174093-19.190285 51.174093-12.793523 25.587047 0 57.570855 19.190285 76.76114L332.631605 889.34417c31.983808 12.793523 57.570855 6.396762 76.76114-12.793524zM511.740931 639.870466C371.012175 639.870466 255.870466 524.728756 255.870466 384s115.14171-255.870466 255.870465-255.870466 255.870466 115.14171 255.870466 255.870466-115.14171 255.870466-255.870466 255.870466zM511.740931 256.064767c-70.364378 0-127.935233 57.570855-127.935233 127.935233s57.570855 127.935233 127.935233 127.935233 127.935233-57.570855 127.935233-127.935233-57.570855-127.935233-127.935233-127.935233z"  horiz-adv-x="1024" />

    
    <glyph glyph-name="DataBoard" unicode="&#59282;" d="M448 384v-448H64V384h384z m512 448v-448H576V832h384zM448 832v-320H64V832h384zM576 256h384v-320H576z"  horiz-adv-x="1024" />

    
    <glyph glyph-name="system" unicode="&#59283;" d="M896 320v-384l-384 64V320h384zM384 768v-320H64V704l320 64z m512 64v-384H512V768l384 64zM64 320h320v-320l-320 64z"  horiz-adv-x="1024" />

    
    <glyph glyph-name="control" unicode="&#59284;" d="M448 192v-64h512v-128H448v-64H192v64H64v128h128v64h256z m384 640v-64h128v-128h-128v-64H576V640H64V768h512V832h256zM640 512v-64h320v-128h-320v-64H384V320H64V448h320V512h256z"  horiz-adv-x="1024" />

    
    <glyph glyph-name="Notstarted" unicode="&#59244;" d="M512 810.666667c234.666667 0 426.666667-192 426.666667-426.666667s-192-426.666667-426.666667-426.666667S85.333333 149.333333 85.333333 384 277.333333 810.666667 512 810.666667z m-42.666667-512h298.666667v85.333333h-213.333333V640h-85.333334v-341.333333z"  horiz-adv-x="1024" />

    
    <glyph glyph-name="Ongoing" unicode="&#59245;" d="M392.533333 170.666667c51.2 0 93.866667-42.666667 93.866667-93.866667s-42.666667-93.866667-93.866667-93.866667S298.666667 21.333333 298.666667 76.8 341.333333 170.666667 392.533333 170.666667z m290.133334 0c46.933333 0 85.333333-38.4 85.333333-85.333334s-38.4-85.333333-85.333333-85.333333-85.333333 38.4-85.333334 85.333333 38.4 85.333333 85.333334 85.333334zM204.8 469.333333c64 0 119.466667-51.2 119.466667-119.466666s-51.2-119.466667-119.466667-119.466667S85.333333 285.866667 85.333333 349.866667 136.533333 469.333333 204.8 469.333333z m640-85.333333c42.666667 0 76.8-34.133333 76.8-76.8s-34.133333-76.8-76.8-76.8-76.8 38.4-76.8 76.8 34.133333 76.8 76.8 76.8z m-12.8 256c34.133333 0 64-29.866667 64-64S866.133333 512 832 512 768 541.866667 768 576 797.866667 640 832 640zM341.333333 810.666667c72.533333 0 128-55.466667 128-128S413.866667 554.666667 341.333333 554.666667 213.333333 610.133333 213.333333 682.666667s55.466667 128 128 128z m341.333334-42.666667c25.6 0 42.666667-17.066667 42.666666-42.666667s-17.066667-42.666667-42.666666-42.666666-42.666667 17.066667-42.666667 42.666666 17.066667 42.666667 42.666667 42.666667z"  horiz-adv-x="1024" />

    
    <glyph glyph-name="Unlock" unicode="&#59243;" d="M768 704h-64V793.6l-384-51.2V576h640v-640H64V576h192V800l512 64V704z m0-192H128v-512h768V512h-128zM512 384v-256H448V384h64z"  horiz-adv-x="1024" />

    
    <glyph glyph-name="Data-Empower" unicode="&#59240;" d="M966.4 371.2l57.6-32-281.6-454.4-185.6 224 51.2 38.4 134.4-160 224 384zM896 832v-448h-64V768H128v-704h384v-64H64V832h832zM320 512v-320H256V512h64z m192 128v-448H448V640h64z m192-128v-320h-64V512h64z"  horiz-adv-x="1024" />

    
    <glyph glyph-name="Reset-Password" unicode="&#59241;" d="M768 576V832H256v-256H64v-256h64V512h768v-512H128v192h512v64h-25.6L492.8 377.6l-44.8-44.8L524.8 256H64v-320h896V576h-192z m-64 128v-128H320V768h384v-64z"  horiz-adv-x="1024" />

    
    <glyph glyph-name="Menu-Empower" unicode="&#59242;" d="M966.4 371.2l57.6-32-281.6-454.4-185.6 224 51.2 38.4 134.4-160 224 384zM896 832v-448h-64V768H128v-704h384v-64H64V832h832z m-576-576v-64H256v64h64z m384 0v-64H384v64h320zM320 448v-64H256V448h64z m384 0v-64H384V448h320z m0 192v-64H384V640h320zM320 640v-64H256V640h64z"  horiz-adv-x="1024" />

    
    <glyph glyph-name="exit" unicode="&#59233;" d="M960 832v-832H576v64h320V768H576V832h384zM294.4 723.2l44.8-44.8L134.4 448H768v-64H134.4l211.2-236.8-44.8-44.8L19.2 416l275.2 307.2z"  horiz-adv-x="1024" />

    
    <glyph glyph-name="leftarrow" unicode="&#59234;" d="M422.4 723.2l44.8-44.8L198.4 384H896v-64H198.4l268.8-300.8-44.8-44.8-339.2 377.6 339.2 371.2z"  horiz-adv-x="1024" />

    
    <glyph glyph-name="drop-down" unicode="&#59235;" d="M512 256l256 256H256z"  horiz-adv-x="1024" />

    
    <glyph glyph-name="full" unicode="&#59236;" d="M358.4 281.6l44.8-44.8L236.8 64H384v-64H128v256h64v-147.2l166.4 172.8z m307.2 0l166.4-166.4V256h64v-256h-256v64h147.2l-166.4 166.4 44.8 51.2zM896 768v-256h-64V659.2l-166.4-166.4-51.2 44.8L787.2 704H640V768h256zM384 768v-64H236.8l166.4-166.4-44.8-51.2L192 659.2V512H128V768h256z"  horiz-adv-x="1024" />

    
    <glyph glyph-name="unfold" unicode="&#59237;" d="M217.6 505.6l51.2 38.4 230.4-256 230.4 256 51.2-38.4L499.2 192z"  horiz-adv-x="1024" />

    
    <glyph glyph-name="user" unicode="&#59238;" d="M512 832c140.8 0 256-115.2 256-256 0-89.6-44.8-166.4-115.2-211.2C832 300.8 960 134.4 960-64H64c0 198.4 128 364.8 307.2 428.8C300.8 409.6 256 486.4 256 576c0 140.8 115.2 256 256 256z m0-512c-192 0-345.6-140.8-377.6-320h755.2C857.6 179.2 704 320 512 320z m0 448C403.2 768 320 684.8 320 576s83.2-192 192-192 192 83.2 192 192-83.2 192-192 192z"  horiz-adv-x="1024" />

    
    <glyph glyph-name="prompt" unicode="&#59239;" d="M512 832c249.6 0 448-198.4 448-448s-198.4-448-448-448-448 198.4-448 448 198.4 448 448 448z m0-64C300.8 768 128 595.2 128 384s172.8-384 384-384 384 172.8 384 384-172.8 384-384 384z m12.8-505.6c12.8 0 25.6-6.4 32-12.8 6.4-6.4 12.8-19.2 12.8-32s-6.4-25.6-12.8-32c-6.4-6.4-19.2-12.8-32-12.8s-25.6 6.4-32 12.8c-6.4 6.4-12.8 19.2-12.8 32s6.4 25.6 12.8 32c6.4 12.8 19.2 12.8 32 12.8zM537.6 640c38.4 0 70.4-12.8 96-32 25.6-19.2 38.4-51.2 38.4-89.6 0-32-6.4-57.6-25.6-76.8 0-12.8-19.2-32-51.2-57.6-12.8-6.4-19.2-19.2-25.6-32-6.4-12.8-12.8-25.6-12.8-38.4v-12.8h-64v12.8c0 25.6 6.4 44.8 12.8 64 6.4 12.8 32 38.4 70.4 76.8l12.8 12.8c6.4 12.8 12.8 25.6 12.8 44.8 0 25.6-6.4 38.4-19.2 51.2-12.8 12.8-25.6 19.2-51.2 19.2-32 0-51.2-6.4-64-25.6-12.8-12.8-19.2-38.4-19.2-64H384c0 44.8 12.8 83.2 38.4 108.8 32 25.6 64 38.4 115.2 38.4z"  horiz-adv-x="1024" />

    
    <glyph glyph-name="config" unicode="&#59232;" d="M556.8 793.6c25.6 25.6 64 38.4 96 25.6 57.6-19.2 102.4-51.2 140.8-89.6 32-25.6 38.4-70.4 25.6-102.4-6.4-12.8 0-32 6.4-51.2 12.8-19.2 19.2-25.6 38.4-32h6.4c38.4-6.4 64-38.4 70.4-70.4 6.4-25.6 6.4-44.8 12.8-83.2V384c0-25.6 0-51.2-6.4-83.2v-6.4l-6.4-12.8c-12.8-25.6-25.6-44.8-44.8-57.6h-6.4c-6.4 0-6.4 0-12.8-6.4-19.2-6.4-32-19.2-44.8-32-12.8-19.2-12.8-38.4-6.4-57.6 12.8-38.4 0-83.2-32-102.4-38.4-32-83.2-57.6-128-83.2-6.4-6.4-19.2-6.4-25.6-6.4h-12.8c-25.6 0-44.8 12.8-64 32-19.2 25.6-32 32-44.8 32-19.2 0-32-6.4-44.8-25.6-19.2-19.2-44.8-32-70.4-32h-25.6c-57.6 19.2-102.4 51.2-147.2 89.6-32 25.6-38.4 70.4-25.6 102.4 6.4 12.8 0 32-6.4 51.2-12.8 19.2-19.2 25.6-38.4 32h-6.4c-38.4 6.4-64 38.4-70.4 76.8-6.4 25.6-12.8 57.6-12.8 89.6 0 25.6 0 51.2 6.4 83.2v6.4l6.4 12.8c12.8 25.6 25.6 44.8 44.8 57.6h6.4c6.4 0 6.4 0 12.8 6.4 19.2 0 38.4 12.8 44.8 25.6 12.8 19.2 12.8 38.4 6.4 57.6-12.8 38.4 0 83.2 25.6 102.4 38.4 32 83.2 64 140.8 83.2 32 12.8 70.4 6.4 96-25.6 19.2-19.2 32-25.6 51.2-25.6 19.2 0 32 6.4 44.8 25.6z m-134.4-38.4C409.6 768 396.8 768 384 768c-44.8-25.6-89.6-44.8-121.6-76.8-12.8-12.8-19.2-25.6-12.8-44.8 6.4-32 6.4-70.4-12.8-96-12.8-25.6-38.4-51.2-76.8-57.6h-6.4c-6.4-6.4-12.8-19.2-19.2-32C128 435.2 128 409.6 128 384c0-25.6 0-51.2 6.4-76.8 0-12.8 12.8-25.6 25.6-32 32-6.4 57.6-25.6 76.8-57.6 19.2-25.6 19.2-64 12.8-96-6.4-12.8 0-32 12.8-38.4 32-32 76.8-57.6 128-76.8h12.8c6.4 0 19.2 6.4 32 12.8 19.2 25.6 51.2 38.4 83.2 38.4s57.6-12.8 83.2-38.4c6.4-12.8 19.2-19.2 25.6-19.2h12.8c44.8 19.2 89.6 44.8 121.6 76.8 12.8 6.4 19.2 25.6 12.8 38.4-6.4 38.4-6.4 70.4 12.8 102.4 12.8 25.6 44.8 44.8 76.8 57.6h6.4c12.8 6.4 19.2 12.8 25.6 25.6V384c0 25.6-6.4 51.2-6.4 76.8 0 12.8-12.8 25.6-25.6 32-32 6.4-57.6 25.6-76.8 57.6-19.2 25.6-19.2 64-12.8 96 6.4 12.8 0 32-12.8 38.4-38.4 38.4-76.8 64-128 83.2-12.8 0-25.6 0-38.4-12.8-19.2-25.6-51.2-38.4-83.2-38.4s-64 12.8-89.6 38.4zM512 576c108.8 0 192-83.2 192-192s-83.2-192-192-192-192 83.2-192 192 83.2 192 192 192z m0-64c-70.4 0-128-57.6-128-128s57.6-128 128-128 128 57.6 128 128-57.6 128-128 128z"  horiz-adv-x="1024" />

    
    <glyph glyph-name="delete" unicode="&#59228;" d="M704 832v-128h256v-64h-128v-704H192V640H64V704h256V832h384z m64-192H256v-640h512V640zM448 512v-384H384V512h64z m192 0v-384H576V512h64z m0 256H384v-64h256V768z"  horiz-adv-x="1024" />

    
    <glyph glyph-name="editor" unicode="&#59229;" d="M768 832l192-192L320 0l-256-64 64 256 38.4 38.4 44.8 44.8 403.2 403.2 44.8 44.8L768 832z m192-832v-64H448v64h512zM217.6 185.6l-32-32-32-134.4 134.4 32 32 32-102.4 102.4z m448 448l-403.2-403.2L364.8 128 768 531.2l-102.4 102.4zM768 742.4l-57.6-57.6 102.4-102.4 57.6 57.6L768 742.4z"  horiz-adv-x="1024" />

    
    <glyph glyph-name="reset" unicode="&#59230;" d="M800 640C729.6 716.8 627.2 768 512 768 300.8 768 128 595.2 128 384s172.8-384 384-384 384 172.8 384 384h64c0-249.6-198.4-448-448-448s-448 198.4-448 448 198.4 448 448 448c128 0 236.8-51.2 320-134.4V832h64v-256h-256V640h160z"  horiz-adv-x="1024" />

    
    <glyph glyph-name="detail" unicode="&#59231;" d="M704 832l192-192v-704H128V832h576zM576 768H192v-768h640V512H576V768z m128-576v-64H320v64h384z m0 192v-64H320V384h384zM512 576v-64H320V576h192z m166.4 192H640v-192h192v38.4L678.4 768z"  horiz-adv-x="1024" />

    
    <glyph glyph-name="through" unicode="&#59226;" d="M806.4 723.2l51.2-38.4-371.2-608-313.6 281.6 38.4 51.2 262.4-230.4z"  horiz-adv-x="1024" />

    
    <glyph glyph-name="close" unicode="&#59227;" d="M806.4 729.6l44.8-44.8L556.8 384l294.4-294.4-44.8-44.8L512 339.2l-294.4-294.4-44.8 44.8L467.2 384 166.4 678.4l44.8 44.8L512 428.8l294.4 300.8z"  horiz-adv-x="1024" />

    
    <glyph glyph-name="funnel" unicode="&#59224;" d="M787.2 704H236.8L448 339.2v-224l128-32v256z"  horiz-adv-x="1024" />

    
    <glyph glyph-name="sort" unicode="&#59225;" d="M768 320l-256-256-256 256h512zM512 704l256-256H256l256 256z"  horiz-adv-x="1024" />

    
    <glyph glyph-name="Advancedquery" unicode="&#59222;" d="M640 704c179.2 0 320-140.8 320-320 0-115.2-57.6-211.2-147.2-268.8l108.8-160-51.2-38.4-115.2 166.4c-32-12.8-76.8-19.2-115.2-19.2-179.2 0-320 140.8-320 320s140.8 320 320 320zM448 64v-64H64v64h384z m192 576C499.2 640 384 524.8 384 384s115.2-256 256-256 256 115.2 256 256-115.2 256-256 256zM256 320v-64H64V320h192z m0 256v-64H64V576h192z m704 256v-64H64V832h896z"  horiz-adv-x="1024" />

    
    <glyph glyph-name="search" unicode="&#59223;" d="M448 832c211.2 0 384-172.8 384-384 0-96-32-179.2-89.6-249.6l115.2-115.2-44.8-44.8-115.2 115.2C627.2 96 544 64 448 64c-211.2 0-384 172.8-384 384s172.8 384 384 384z m0-64C268.8 768 128 627.2 128 448s140.8-320 320-320 320 140.8 320 320-140.8 320-320 320z"  horiz-adv-x="1024" />

    
    <glyph glyph-name="date" unicode="&#59220;" d="M320 832v-128h384V832h64v-128h192v-768H64V704h192V832h64z m576-384H128v-448h768V448z m-448-256v-64H256v64h192z m320 0v-64H576v64h192zM448 320v-64H256V320h192z m320 0v-64H576V320h192z m128 320H128v-128h768V640z"  horiz-adv-x="1024" />

    
    <glyph glyph-name="time" unicode="&#59221;" d="M512 832c249.6 0 448-198.4 448-448s-198.4-448-448-448-448 198.4-448 448 198.4 448 448 448z m0-64C300.8 768 128 595.2 128 384s172.8-384 384-384 384 172.8 384 384-172.8 384-384 384z m0-192v-256h192v-64H448V576h64z"  horiz-adv-x="1024" />

    
    <glyph glyph-name="export" unicode="&#59217;" d="M448 768v-64H192v-640h640V320h64v-320H128V768h320z m448 0v-320h-64V659.2L537.6 358.4l-51.2 51.2L787.2 704H576V768h320z"  horiz-adv-x="1024" />

    
    <glyph glyph-name="import" unicode="&#59218;" d="M448 768v-64H192v-640h640V320h64v-320H128V768h320z m-64-512V576h64v-211.2l390.4 390.4 44.8-44.8L492.8 320H704v-64H384z"  horiz-adv-x="1024" />

    
    <glyph glyph-name="download" unicode="&#59214;" d="M128 320v-320h704V320h64v-384H64V320h64z m384 512v-588.8L716.8 448l44.8-44.8-281.6-281.6-275.2 281.6 44.8 44.8L448 249.6V832h64z"  horiz-adv-x="1024" />

    
    <glyph glyph-name="upload" unicode="&#59215;" d="M128 320v-320h704V320h64v-384H64V320h64z m358.4 512L768 550.4l-44.8-44.8L512 710.4V128H448V704L249.6 505.6l-44.8 44.8L486.4 832z"  horiz-adv-x="1024" />

    
    <glyph glyph-name="list-shrink" unicode="&#59212;" d="M851.2 524.8l-352-352-358.4 352 70.4 70.4 288-288 281.6 288z"  horiz-adv-x="1024" />

    
    <glyph glyph-name="list-unfold" unicode="&#59213;" d="M352 736L710.4 384l-358.4-352-64 64L569.6 384 288 672z"  horiz-adv-x="1024" />

    
    <glyph glyph-name="plus" unicode="&#59210;" d="M512 832v-384h384v-64H512v-384H448V384H64V448h384V832h64z"  horiz-adv-x="1024" />

    
    <glyph glyph-name="minus-subtract" unicode="&#59211;" d="M128 320h768V384H128z"  horiz-adv-x="1024" />

    
    <glyph glyph-name="big-upload" unicode="&#59209;" d="M512 713.142857c131.657143 0 237.714286-106.057143 237.714286-237.714286v-7.314285c95.085714-23.771429 164.571429-109.714286 164.571428-212.114286 0-115.2-87.771429-210.285714-201.142857-219.428571H310.857143c-120.685714 0-219.428571 98.742857-219.428572 219.428571 0 107.885714 78.628571 199.314286 182.857143 215.771429V475.428571c0 131.657143 106.057143 237.714286 237.714286 237.714286z m0-266.971428l-122.514286-122.514286 25.6-25.6 78.628572 78.628571V164.571429h36.571428V376.685714l78.628572-78.628571 25.6 25.6-122.514286 122.514286z"  horiz-adv-x="1024" />

    
    <glyph glyph-name="menu-shrink" unicode="&#59207;" d="M896 128v-128H128v128h768zM384 576v-384L128 384l256 192z m512-128v-128H512V448h384z m0 320v-128H128V768h768z"  horiz-adv-x="1024" />

    
    <glyph glyph-name="menu-unfold" unicode="&#59208;" d="M896 128v-128H128v128h768z m-256 384l256-128-256-128V512zM512 448v-128H128V448h384z m384 320v-128H128V768h768z"  horiz-adv-x="1024" />

    
    <glyph glyph-name="Android" unicode="&#59202;" d="M768 448v-320c0-38.4-25.6-64-64-64v-64c0-38.4-25.6-64-64-64s-64 25.6-64 64v64H448v-64c0-38.4-25.6-64-64-64s-64 25.6-64 64v64c-38.4 0-64 25.6-64 64V448h512z m128 0c38.4 0 64-25.6 64-64v-192c0-38.4-25.6-64-64-64s-64 25.6-64 64V384c0 38.4 25.6 64 64 64zM128 448c38.4 0 64-25.6 64-64v-192c0-38.4-25.6-64-64-64s-64 25.6-64 64V384c0 38.4 25.6 64 64 64z m563.2 377.6c12.8-6.4 19.2-25.6 12.8-38.4v-6.4l-38.4-64c64-44.8 102.4-115.2 108.8-192L768 512H256c0 83.2 44.8 160 108.8 204.8l-38.4 64c-12.8 19.2-6.4 38.4 6.4 44.8 19.2 12.8 32 6.4 44.8-6.4l6.4-6.4 38.4-64C448 761.6 480 768 512 768s64-6.4 96-19.2l38.4 64c6.4 19.2 25.6 25.6 44.8 12.8zM416 640c-19.2 0-32-12.8-32-32s12.8-32 32-32 32 12.8 32 32-12.8 32-32 32z m192 0c-19.2 0-32-12.8-32-32s12.8-32 32-32 32 12.8 32 32-12.8 32-32 32z"  horiz-adv-x="1024" />

    
    <glyph glyph-name="applet" unicode="&#59203;" d="M512 896c281.6 0 512-230.4 512-512s-230.4-512-512-512-512 230.4-512 512 230.4 512 512 512z m-44.8-268.8c-32-51.2-25.6-134.4 6.4-256 25.6-102.4 32-166.4 12.8-192-25.6-38.4-76.8-51.2-121.6-25.6s-57.6 76.8-32 115.2c6.4 12.8 25.6 25.6 51.2 32 25.6 19.2 32 38.4 25.6 57.6s-32 32-51.2 25.6c-38.4-19.2-70.4-38.4-83.2-70.4-44.8-76.8-19.2-172.8 57.6-224s179.2-25.6 224 51.2c32 51.2 25.6 134.4-6.4 256-25.6 102.4-32 166.4-12.8 192 25.6 38.4 76.8 51.2 121.6 25.6s57.6-76.8 32-115.2c-6.4-12.8-25.6-25.6-44.8-32-25.6-19.2-38.4-38.4-25.6-57.6 6.4-19.2 32-25.6 51.2-19.2 38.4 19.2 64 38.4 83.2 64 44.8 76.8 19.2 172.8-57.6 224s-179.2 25.6-230.4-51.2z"  horiz-adv-x="1024" />

    
    <glyph glyph-name="WeChat" unicode="&#59205;" d="M691.2 499.2h32C697.6 652.8 537.6 768 364.8 768 166.4 768 0 620.8 0 435.2c0-108.8 51.2-192 147.2-262.4l-38.4-115.2 128 70.4c44.8-12.8 83.2-19.2 128-19.2h32c-6.4 25.6-12.8 51.2-12.8 76.8 0 172.8 134.4 313.6 307.2 313.6z m-192 102.4c25.6 0 44.8-19.2 44.8-51.2s-19.2-51.2-44.8-51.2c-25.6 0-57.6 19.2-57.6 51.2s32 51.2 57.6 51.2z m-256-96c-25.6 0-51.2 19.2-51.2 51.2s25.6 51.2 57.6 51.2c25.6 0 44.8-19.2 44.8-51.2-6.4-32-25.6-51.2-51.2-51.2zM1024 192c0 153.6-147.2 281.6-307.2 281.6-172.8 0-307.2-128-307.2-281.6 0-153.6 134.4-281.6 307.2-281.6 38.4 0 70.4 12.8 108.8 19.2l102.4-57.6-32 96c76.8 57.6 128 140.8 128 224z m-409.6 51.2c-19.2 0-38.4 19.2-38.4 38.4 6.4 19.2 19.2 38.4 38.4 38.4 25.6 0 44.8-19.2 44.8-38.4s-12.8-38.4-44.8-38.4z m198.4 0c-19.2 0-38.4 19.2-38.4 38.4s19.2 38.4 38.4 38.4c25.6 0 44.8-19.2 44.8-38.4 6.4-19.2-12.8-38.4-44.8-38.4z"  horiz-adv-x="1024" />

    
    <glyph glyph-name="iOS" unicode="&#59206;" d="M806.4 243.2c19.2-32 51.2-57.6 89.6-70.4-19.2-44.8-38.4-89.6-70.4-134.4-44.8-70.4-96-102.4-140.8-102.4-25.6 0-51.2 6.4-76.8 19.2-25.6 12.8-57.6 19.2-83.2 19.2s-51.2-6.4-76.8-19.2c-25.6-12.8-51.2-19.2-76.8-19.2-57.6 0-108.8 44.8-166.4 140.8C160 153.6 128 249.6 128 339.2c0 70.4 19.2 140.8 64 198.4 38.4 51.2 96 76.8 153.6 76.8 12.8 0 32 0 44.8-6.4 19.2-6.4 38.4-12.8 51.2-19.2 19.2 0 32-6.4 51.2-12.8 6.4-6.4 19.2-6.4 25.6-6.4 12.8 0 25.6 0 38.4 6.4 19.2 0 38.4 6.4 51.2 19.2 12.8 6.4 32 12.8 44.8 19.2 12.8 6.4 25.6 6.4 38.4 6.4 38.4 0 83.2-12.8 115.2-32 25.6-12.8 44.8-32 64-51.2-25.6-19.2-44.8-38.4-64-64-25.6-32-38.4-70.4-38.4-108.8 0-44.8 12.8-89.6 38.4-121.6zM620.8 665.6c-19.2-19.2-38.4-32-57.6-38.4-6.4 0-12.8-6.4-25.6-6.4s-19.2 0-32-6.4C499.2 723.2 576 819.2 684.8 832v-25.6c0-25.6-6.4-51.2-12.8-70.4-12.8-25.6-32-51.2-51.2-70.4z"  horiz-adv-x="1024" />

    
    <glyph glyph-name="logo" unicode="&#59201;" d="M523.752629 892.809969C629.023657 892.809969 877.846087 876.859813 1021.397489 746.068536c0 0 19.140187-175.451713-73.370717-411.514019 0 0-92.510903-303.05296-437.034268-459.364486 0 0-334.953271 111.65109-468.934579 545.495327 0 0-47.850467 127.601246-41.470405 328.573209C0.58752 749.258567 134.568828 889.619938 469.522099 896h44.660437l9.570093-3.190031z m-9.570093-66.990654H469.522099C236.649825 822.629283 109.048579 746.068536 64.388143 714.168224c0-165.88162 38.280374-267.962617 38.280374-271.152648v-6.380062c102.080997-334.953271 331.76324-462.554517 405.133956-494.454829l86.130841 47.850468-6.380062-3.190032c-19.140187-6.380062-41.470405 6.380062-47.850467 25.52025l-86.130841 283.912772L820.425526 414.305296l38.280374-124.411215c9.570093 19.140187 19.140187 38.280374 25.520249 60.610592v-3.190031c-15.950156 3.190031-25.520249 12.760125-31.900311 28.71028L798.095308 557.856698c-3.190031 9.570093-3.190031 22.330218 3.190031 31.900311s12.760125 19.140187 25.52025 22.330218h3.190031c22.330218 6.380062 44.660436-6.380062 51.040498-28.71028l38.280374-130.791277C954.406835 573.806854 957.596866 669.507788 957.596866 710.978193c-137.17134 105.271028-370.043614 114.841121-443.41433 114.841122z m-118.031153-535.925234c22.330218 6.380062 44.660436-6.380062 51.040498-28.71028l54.23053-178.641745c3.190031-9.570093 3.190031-22.330218-3.190031-31.900311-6.380062-9.570093-12.760125-19.140187-25.520249-22.330219h-3.190032c-9.570093-3.190031-22.330218-3.190031-31.900311 3.190032-9.570093 6.380062-15.950156 15.950156-19.140187 25.520249l-54.23053 178.641744c-3.190031 9.570093-3.190031 22.330218 3.190032 31.900312 6.380062 9.570093 15.950156 15.950156 28.71028 22.330218z m293.482866 338.143302c6.380062 0 6.380062-6.380062 6.380062-9.570093l-15.950155-60.610592c63.800623-9.570093 118.031153-51.040498 137.171339-111.651091 0-3.190031 3.190031-6.380062 3.190031-12.760124L450.381913 318.604361c0 3.190031-3.190031 6.380062-3.190032 9.570094-19.140187 60.610592 3.190031 127.601246 51.040499 172.261682L450.381913 541.906542c-3.190031 3.190031-3.190031 6.380062 0 9.570094 3.190031 3.190031 6.380062 3.190031 9.570093 0l47.850467-41.470405c44.660436 38.280374 102.080997 57.420561 159.501558 51.040498l15.950156 60.610592c0 6.380062 3.190031 6.380062 6.380062 6.380062zM542.892816 439.825545c-3.190031 9.570093-12.760125 15.950156-22.330218 12.760125-9.570093-3.190031-15.950156-12.760125-12.760125-22.330218 3.190031-9.570093 12.760125-15.950156 22.330218-12.760125 3.190031 0 9.570093 6.380062 9.570094 9.570094 3.190031 3.190031 3.190031 6.380062 3.190031 12.760124z m169.071651 54.23053c-3.190031 9.570093-12.760125 15.950156-22.330218 12.760124-9.570093-3.190031-15.950156-12.760125-12.760125-22.330218s12.760125-15.950156 22.330218-12.760124c3.190031 0 9.570093 6.380062 9.570094 9.570093 6.380062 3.190031 6.380062 6.380062 3.190031 12.760125z"  horiz-adv-x="1026" />

    
    <glyph glyph-name="Headportrait" unicode="&#59199;" d="M512 384m-512 0a512 512 0 1 1 1024 0 512 512 0 1 1-1024 0ZM512 640c112.64 0 204.8-92.16 204.8-204.8 0-71.68-35.84-133.12-92.16-168.96 117.76-35.84 204.8-133.12 235.52-256C768-76.79999999999995 645.12-128 512-128c-133.12 0-256 51.2-348.16 138.24 30.72 122.88 117.76 215.04 235.52 256C343.04 302.08000000000004 307.2 363.52 307.2 435.2c0 112.64 92.16 204.8 204.8 204.8z"  horiz-adv-x="1024" />

    
    <glyph glyph-name="message" unicode="&#59200;" d="M614.4-25.600000000000023c30.72 0 51.2-20.48 51.2-51.2s-20.48-51.2-51.2-51.2H409.6c-30.72 0-51.2 20.48-51.2 51.2s20.48 51.2 51.2 51.2h204.8zM512 844.8c30.72 0 51.2-20.48 51.2-51.2v-56.32c143.36-25.6 256-148.48 256-302.08v-153.6l92.16-122.88c15.36-20.48 10.24-56.32-10.24-71.68-10.24-5.12-20.48-10.24-30.72-10.24H153.6c-30.72 0-51.2 20.48-51.2 51.2 0 10.24 5.12 20.48 10.24 30.72L204.8 281.6V435.2c0 153.6 112.64 276.48 256 302.08V793.6c0 30.72 20.48 51.2 51.2 51.2z"  horiz-adv-x="1024" />

    
    <glyph glyph-name="error" unicode="&#59198;" d="M512 810.666667c234.666667 0 426.666667-192 426.666667-426.666667s-192-426.666667-426.666667-426.666667S85.333333 149.33333300000004 85.333333 384 277.333333 810.666667 512 810.666667z m140.8-226.133334L512 443.733333 371.2 584.5333330000001 311.466667 524.8l140.8-140.8-140.8-140.8 59.733333-59.733333 140.8 140.8 140.8-140.8 59.733333 59.733333-140.8 140.8 140.8 140.8-59.733333 59.733333z"  horiz-adv-x="1024" />

    
    <glyph glyph-name="reminder" unicode="&#59204;" d="M512 810.666667c234.666667 0 426.666667-192 426.666667-426.666667s-192-426.666667-426.666667-426.666667S85.333333 149.33333300000004 85.333333 384 277.333333 810.666667 512 810.666667z m42.666667-341.333334h-85.333334v-341.333333h85.333334v341.333333z m0 170.666667h-85.333334v-85.333333h85.333334V640z"  horiz-adv-x="1024" />

    
    <glyph glyph-name="success" unicode="&#59216;" d="M512 810.666667c234.666667 0 426.666667-192 426.666667-426.666667s-192-426.666667-426.666667-426.666667S85.333333 149.33333300000004 85.333333 384 277.333333 810.666667 512 810.666667z m179.2-226.133334l-226.133333-264.533333-136.533334 136.533333-59.733333-59.733333 204.8-204.8 285.866667 332.8-68.266667 59.733333z"  horiz-adv-x="1024" />

    
    <glyph glyph-name="warning" unicode="&#59219;" d="M512 810.666667c234.666667 0 426.666667-192 426.666667-426.666667s-192-426.666667-426.666667-426.666667S85.333333 149.33333300000004 85.333333 384 277.333333 810.666667 512 810.666667z m42.666667-597.333334h-85.333334v-85.333333h85.333334v85.333333z m0 426.666667h-85.333334v-341.333333h85.333334V640z"  horiz-adv-x="1024" />

    


  </font>
</defs>
</svg>
